<svg width="24" height="25" viewBox="0 0 24 25" fill="none" xmlns="http://www.w3.org/2000/svg">
<path d="M5.74982 16.3572V10.3571C5.74982 10.1446 5.82173 9.96651 5.96554 9.82276C6.10936 9.67903 6.28756 9.60717 6.50014 9.60717C6.71273 9.60717 6.89082 9.67903 7.03442 9.82276C7.178 9.96651 7.24979 10.1446 7.24979 10.3571V16.3572C7.24979 16.5697 7.17789 16.7478 7.03407 16.8916C6.89025 17.0353 6.71205 17.1072 6.49947 17.1072C6.28689 17.1072 6.10879 17.0353 5.96519 16.8916C5.82161 16.7478 5.74982 16.5697 5.74982 16.3572ZM11.2498 16.3572V10.3571C11.2498 10.1446 11.3217 9.96651 11.4655 9.82276C11.6093 9.67903 11.7875 9.60717 12.0001 9.60717C12.2127 9.60717 12.3908 9.67903 12.5344 9.82276C12.678 9.96651 12.7497 10.1446 12.7497 10.3571V16.3572C12.7497 16.5697 12.6778 16.7478 12.534 16.8916C12.3902 17.0353 12.212 17.1072 11.9994 17.1072C11.7868 17.1072 11.6088 17.0353 11.4652 16.8916C11.3216 16.7478 11.2498 16.5697 11.2498 16.3572ZM3.51904 20.6072C3.30654 20.6072 3.12842 20.5353 2.98467 20.3914C2.84092 20.2476 2.76904 20.0694 2.76904 19.8568C2.76904 19.6442 2.84092 19.4661 2.98467 19.3226C3.12842 19.179 3.30654 19.1072 3.51904 19.1072H20.4805C20.693 19.1072 20.8711 19.1791 21.0149 19.3229C21.1586 19.4667 21.2305 19.6449 21.2305 19.8575C21.2305 20.0701 21.1586 20.2482 21.0149 20.3918C20.8711 20.5354 20.693 20.6072 20.4805 20.6072H3.51904ZM16.7497 16.3572V10.3571C16.7497 10.1446 16.8217 9.96651 16.9655 9.82276C17.1093 9.67903 17.2875 9.60717 17.5001 9.60717C17.7127 9.60717 17.8907 9.67903 18.0343 9.82276C18.1779 9.96651 18.2497 10.1446 18.2497 10.3571V16.3572C18.2497 16.5697 18.1778 16.7478 18.034 16.8916C17.8902 17.0353 17.712 17.1072 17.4994 17.1072C17.2868 17.1072 17.1087 17.0353 16.9651 16.8916C16.8215 16.7478 16.7497 16.5697 16.7497 16.3572ZM20.519 7.60717H3.40942C3.23153 7.60717 3.08033 7.54502 2.95582 7.42074C2.8313 7.29647 2.76904 7.14557 2.76904 6.96804V6.57746C2.76904 6.44728 2.80166 6.33506 2.86689 6.24079C2.93211 6.14654 3.01808 6.06996 3.12482 6.01104L11.2055 2.05721C11.4552 1.93671 11.7195 1.87646 11.9985 1.87646C12.2776 1.87646 12.5427 1.93671 12.794 2.05721L20.8343 5.98604C20.96 6.05014 21.0574 6.13988 21.1266 6.25526C21.1959 6.37065 21.2305 6.49459 21.2305 6.62709V6.89809C21.2305 7.10286 21.1635 7.27222 21.0295 7.40619C20.8956 7.54017 20.7254 7.60717 20.519 7.60717ZM6.31514 6.10719H17.6844L12.1344 3.41489C12.0895 3.39566 12.0447 3.38604 11.9998 3.38604C11.9549 3.38604 11.91 3.39566 11.8651 3.41489L6.31514 6.10719Z" fill="#727272"/>
</svg>
