<svg width="17" height="17" viewBox="0 0 17 17" fill="none" xmlns="http://www.w3.org/2000/svg">
<path d="M12.8605 3.32794L9.19385 1.95461C8.81385 1.81461 8.19385 1.81461 7.81385 1.95461L4.14719 3.32794C3.44052 3.59461 2.86719 4.42128 2.86719 5.17461V10.5746C2.86719 11.1146 3.22052 11.8279 3.65385 12.1479L7.32052 14.8879C7.96719 15.3746 9.02719 15.3746 9.67385 14.8879L13.3405 12.1479C13.7739 11.8213 14.1272 11.1146 14.1272 10.5746V5.17461C14.1339 4.42128 13.5605 3.59461 12.8605 3.32794ZM10.8205 7.06128L7.95385 9.92794C7.85385 10.0279 7.72719 10.0746 7.60052 10.0746C7.47385 10.0746 7.34719 10.0279 7.24719 9.92794L6.18052 8.84794C5.98719 8.65461 5.98719 8.33461 6.18052 8.14128C6.37385 7.94794 6.69385 7.94794 6.88719 8.14128L7.60719 8.86128L10.1205 6.34794C10.3139 6.15461 10.6339 6.15461 10.8272 6.34794C11.0205 6.54128 11.0205 6.86794 10.8205 7.06128Z" fill="#006D5A"/>
</svg>
